<?xml version="1.0" encoding="UTF-8" standalone="no"?>
<svg
   xmlns:dc="http://purl.org/dc/elements/1.1/"
   xmlns:cc="http://creativecommons.org/ns#"
   xmlns:rdf="http://www.w3.org/1999/02/22-rdf-syntax-ns#"
   xmlns:svg="http://www.w3.org/2000/svg"
   xmlns="http://www.w3.org/2000/svg"
   xmlns:sodipodi="http://sodipodi.sourceforge.net/DTD/sodipodi-0.dtd"
   xmlns:inkscape="http://www.inkscape.org/namespaces/inkscape"
   inkscape:version="1.0 (4035a4fb49, 2020-05-01)"
   sodipodi:docname="student.svg"
   viewBox="0 0 2560 1440"
   height="1440"
   width="2560"
   xml:space="preserve"
   id="svg833"
   version="1.1"><metadata
     id="metadata839"><rdf:RDF><cc:Work
         rdf:about=""><dc:format>image/svg+xml</dc:format><dc:type
           rdf:resource="http://purl.org/dc/dcmitype/StillImage" /><dc:title></dc:title></cc:Work></rdf:RDF></metadata><defs
     id="defs837"><clipPath
       id="clipPath849"
       clipPathUnits="userSpaceOnUse"><path
         id="path847"
         d="M 0,1080 H 1920 V 0 H 0 Z" /></clipPath><clipPath
       id="clipPath861"
       clipPathUnits="userSpaceOnUse"><path
         id="path859"
         d="m 814.365,708.089 h 92.249 v -77 h -92.249 z" /></clipPath><clipPath
       id="clipPath893"
       clipPathUnits="userSpaceOnUse"><path
         id="path891"
         d="M 936.641,622.069 H 1105.61 V 230.44 H 936.641 Z" /></clipPath><clipPath
       id="clipPath909"
       clipPathUnits="userSpaceOnUse"><path
         id="path907"
         d="M 971.614,356.089 H 1081.61 V 310.061 H 971.614 Z" /></clipPath><clipPath
       id="clipPath925"
       clipPathUnits="userSpaceOnUse"><path
         id="path923"
         d="m 965.614,443.089 h 67.996 v -23 h -67.996 z" /></clipPath><clipPath
       id="clipPath941"
       clipPathUnits="userSpaceOnUse"><path
         id="path939"
         d="m 1042.61,430.089 h 37 v -31 h -37 z" /></clipPath><clipPath
       id="clipPath957"
       clipPathUnits="userSpaceOnUse"><path
         id="path955"
         d="m 946.614,452.089 h 53.996 v -16 h -53.996 z" /></clipPath><clipPath
       id="clipPath973"
       clipPathUnits="userSpaceOnUse"><path
         id="path971"
         d="m 1022.61,462.089 h 51 v -14 h -51 z" /></clipPath><clipPath
       id="clipPath989"
       clipPathUnits="userSpaceOnUse"><path
         id="path987"
         d="m 952.614,475.089 h 100.996 v -15 H 952.614 Z" /></clipPath><clipPath
       id="clipPath1005"
       clipPathUnits="userSpaceOnUse"><path
         id="path1003"
         d="m 1006.61,478.089 h 51 v -6 h -51 z" /></clipPath><clipPath
       id="clipPath1021"
       clipPathUnits="userSpaceOnUse"><path
         id="path1019"
         d="m 1051.61,491.089 h 30 v -11 h -30 z" /></clipPath><clipPath
       id="clipPath1037"
       clipPathUnits="userSpaceOnUse"><path
         id="path1035"
         d="m 1015.61,503.089 h 58 v -9 h -58 z" /></clipPath><clipPath
       id="clipPath1053"
       clipPathUnits="userSpaceOnUse"><path
         id="path1051"
         d="m 949.614,536.089 h 21 v -33 h -21 z" /></clipPath><clipPath
       id="clipPath1069"
       clipPathUnits="userSpaceOnUse"><path
         id="path1067"
         d="m 943.614,544.089 h 5 v -37 h -5 z" /></clipPath><clipPath
       id="clipPath1085"
       clipPathUnits="userSpaceOnUse"><path
         id="path1083"
         d="m 939.614,548.089 h 8 v -43 h -8 z" /></clipPath><clipPath
       id="clipPath1105"
       clipPathUnits="userSpaceOnUse"><path
         id="path1103"
         d="m 847.614,631.089 h 32.033 v -63 h -32.033 z" /></clipPath><clipPath
       id="clipPath1121"
       clipPathUnits="userSpaceOnUse"><path
         id="path1119"
         d="m 779.614,596.089 h 31 v -69 h -31 z" /></clipPath><clipPath
       id="clipPath1137"
       clipPathUnits="userSpaceOnUse"><path
         id="path1135"
         d="m 791.614,430.089 h 24 v -88 h -24 z" /></clipPath><clipPath
       id="clipPath1153"
       clipPathUnits="userSpaceOnUse"><path
         id="path1151"
         d="m 798.614,342.089 h 11 v -47 h -11 z" /></clipPath><clipPath
       id="clipPath1169"
       clipPathUnits="userSpaceOnUse"><path
         id="path1167"
         d="m 849.614,578.089 h 63 v -63 h -63 z" /></clipPath><clipPath
       id="clipPath1197"
       clipPathUnits="userSpaceOnUse"><path
         id="path1195"
         d="m 1142.61,399.089 h 55 v -212 h -55 z" /></clipPath><clipPath
       id="clipPath1213"
       clipPathUnits="userSpaceOnUse"><path
         id="path1211"
         d="m 1104.61,410.089 h 19 v -72 h -19 z" /></clipPath><clipPath
       id="clipPath1229"
       clipPathUnits="userSpaceOnUse"><path
         id="path1227"
         d="m 1104.61,278.089 h 33 v -91 h -33 z" /></clipPath><clipPath
       id="clipPath1245"
       clipPathUnits="userSpaceOnUse"><path
         id="path1243"
         d="m 1210.61,374.089 h 51 v -88 h -51 z" /></clipPath></defs><sodipodi:namedview
     inkscape:current-layer="g841"
     inkscape:window-maximized="1"
     inkscape:window-y="-8"
     inkscape:window-x="-8"
     inkscape:cy="558.23065"
     inkscape:cx="1280"
     inkscape:zoom="0.24726562"
     showgrid="false"
     id="namedview835"
     inkscape:window-height="738"
     inkscape:window-width="1280"
     inkscape:pageshadow="2"
     inkscape:pageopacity="0"
     guidetolerance="10"
     gridtolerance="10"
     objecttolerance="10"
     borderopacity="1"
     bordercolor="#666666"
     pagecolor="#ffffff" /><g
     transform="matrix(1.3333333,0,0,-1.3333333,0,1440)"
     inkscape:label="student-5473769"
     inkscape:groupmode="layer"
     id="g841"><g
       transform="translate(0,60)"
       id="g843"><g
         clip-path="url(#clipPath849)"
         id="g845"><g
           transform="translate(918.1069,739.5879)"
           id="g851"><path
             id="path853"
             style="fill:#eab5a8;fill-opacity:1;fill-rule:nonzero;stroke:none"
             d="m 0,0 c -2.154,-0.308 -4.305,0.583 -5.61,2.324 l -0.883,1.177 -2,2 v -9 -9 -5.938 c 0,-5.283 -1.379,-10.475 -4,-15.062 l -7.119,-8.009 c -0.586,-0.659 -1.231,-1.263 -1.928,-1.805 l -5.625,-4.375 c -1.544,-1.201 -3.254,-2.171 -5.077,-2.88 l -7.994,-3.109 c -4.723,-1.837 -8.765,-5.084 -11.576,-9.301 -1.111,-1.666 -2.526,-3.106 -4.172,-4.246 l -7.635,-5.285 c -1.905,-1.319 -3.999,-2.342 -6.211,-3.033 l -6.309,-1.971 c -4.173,-1.304 -8.601,-1.565 -12.897,-0.759 l -3.44,0.645 c -3.98,0.746 -7.795,2.194 -11.266,4.278 l 3.249,-8.15 2.93,-10.743 c 0.046,-0.171 0.098,-0.341 0.154,-0.51 l 2.916,-8.747 0.285,-1.426 c 0.474,-2.367 1.326,-4.642 2.523,-6.738 l 2.192,-3.836 2,-5 1,-4 14.431,11.036 c 1.711,1.308 3.495,2.52 5.342,3.628 l 17.227,10.336 19,13 14,10 12,8 6,5 -1.863,9.936 c -0.756,4.034 -1.137,8.129 -1.137,12.234 v 7.83 18.951 c 0,2.03 0.158,4.056 0.473,6.061 z" /></g><g
           id="g855"><g
             id="g857" /><g
             id="g869"><g
               id="g867"
               opacity="0.399994"
               clip-path="url(#clipPath861)"><g
                 id="g865"
                 transform="translate(898.4946,698.0801)"><path
                   id="path863"
                   style="fill:#000000;fill-opacity:1;fill-rule:nonzero;stroke:none"
                   d="M 0,0 C -0.586,-0.659 -1.231,-1.264 -1.927,-1.805 L -7.553,-6.18 c -1.544,-1.201 -3.254,-2.171 -5.076,-2.88 l -7.995,-3.109 c -4.723,-1.837 -8.765,-5.084 -11.576,-9.301 -1.111,-1.666 -2.526,-3.106 -4.172,-4.246 l -7.634,-5.285 c -1.906,-1.319 -4,-2.342 -6.212,-3.033 l -6.309,-1.971 c -4.172,-1.304 -8.6,-1.565 -12.897,-0.759 l -3.44,0.645 c -3.979,0.746 -7.794,2.194 -11.266,4.278 l 3.249,-5.15 5,-19 5,-11 0.977,22.46 c 0.015,0.356 0.106,0.705 0.265,1.023 0.465,0.93 1.414,1.517 2.454,1.517 h 0.416 c 1.899,0 3.773,-0.442 5.472,-1.292 l 2.589,-1.295 c 0.55,-0.275 1.125,-0.498 1.716,-0.667 l 2.209,-0.631 c 2.524,-0.721 5.22,-0.55 7.632,0.483 l 10.27,4.402 10,6 17,13 6,11 7,8 5,13 z" /></g></g></g></g><g
           transform="translate(763.6484,845.1235)"
           id="g871"><path
             id="path873"
             style="fill:#eab5a8;fill-opacity:1;fill-rule:nonzero;stroke:none"
             d="m 0,0 5.251,5.251 c 3.091,3.091 6.925,5.333 11.134,6.512 l 16.454,4.607 c 1.415,0.396 2.861,0.672 4.323,0.823 l 24.223,2.506 c 1.719,0.177 3.446,0.266 5.175,0.266 h 14.585 c 3.205,0 6.4,-0.338 9.534,-1.009 6.006,-1.288 11.383,-4.61 15.219,-9.407 1.347,-1.683 2.153,-3.734 2.312,-5.883 l 1.354,-18.279 c 0.268,-3.612 0.741,-7.204 1.418,-10.762 l 2.234,-11.724 c 0.403,-2.114 2.533,-3.426 4.601,-2.835 l 6.826,1.95 c 1.842,0.526 3.765,-0.525 4.315,-2.36 l 1.051,-3.503 c 0.596,-1.986 0.14,-4.14 -1.21,-5.715 l -1.685,-1.966 c -1.092,-1.273 -0.696,-3.233 0.804,-3.983 l 1.851,-0.925 c 0.763,-0.382 1.335,-1.062 1.581,-1.88 l 5.615,-18.719 4,-16 3,-3 1,5 3,14 3,12 1.543,5.143 c 0.914,3.045 3.252,5.456 6.268,6.461 l 1.189,0.396 h 3.646 c 0.867,0 1.699,-0.344 2.312,-0.957 l 1.042,-1.043 2.172,-5.068 c 0.547,-1.274 0.828,-2.647 0.828,-4.033 v -9.093 c 0,-0.536 -0.044,-1.071 -0.132,-1.601 l -1.8,-10.798 c -0.045,-0.271 -0.105,-0.539 -0.181,-0.803 l -3.391,-11.868 c -0.323,-1.131 -0.979,-2.138 -1.882,-2.891 l -2.576,-2.146 c -1.332,-1.111 -2.947,-1.829 -4.663,-2.074 l -0.882,-0.126 c -2.154,-0.307 -4.304,0.583 -5.61,2.324 l -0.883,1.177 -2,2 v -9 -9 -5.937 c 0,-5.283 -1.379,-10.475 -4,-15.063 l -7.119,-8.008 c -0.586,-0.66 -1.231,-1.264 -1.927,-1.806 l -5.626,-4.375 c -1.543,-1.2 -3.253,-2.171 -5.076,-2.88 l -7.995,-3.108 c -4.722,-1.837 -8.765,-5.085 -11.576,-9.301 -1.11,-1.666 -2.526,-3.107 -4.172,-4.246 l -7.634,-5.285 c -1.905,-1.32 -4,-2.342 -6.212,-3.033 l -6.309,-1.972 c -4.172,-1.304 -8.6,-1.564 -12.897,-0.759 l -3.44,0.645 c -3.979,0.746 -7.794,2.195 -11.266,4.278 -3.153,1.891 -6.032,4.203 -8.561,6.872 l -14.19,14.978 -7.881,9.095 c -3.384,3.904 -6.034,8.39 -7.82,13.239 l -2.918,7.92 c -0.92,2.496 -1.704,5.039 -2.349,7.619 l -3.776,15.107 c -0.17,0.679 -0.399,1.342 -0.683,1.982 -2.36,5.311 -3.697,11.02 -3.939,16.827 l -0.634,15.211 -2,27 -1,27 -0.151,1.509 C -5.723,-9.151 -3.819,-3.819 0,0" /></g><g
           transform="translate(957.6138,309.0889)"
           id="g875"><path
             id="path877"
             style="fill:#eab5a8;fill-opacity:1;fill-rule:nonzero;stroke:none"
             d="m 0,0 -61.101,-52.231 c -0.599,-0.512 -1.235,-0.977 -1.905,-1.39 l -66.199,-40.888 c -0.529,-0.327 -1.084,-0.61 -1.659,-0.846 l -13.223,-5.446 c -1.868,-0.768 -3.962,-0.779 -5.838,-0.029 l -6.494,2.598 c -0.385,0.154 -0.741,0.371 -1.054,0.642 l -14.082,12.204 c -0.296,0.257 -0.614,0.488 -0.95,0.69 L -177,-82 h -5.364 c -1.072,0 -2.126,-0.279 -3.056,-0.812 L -191,-86 h -3.085 c -1.892,0 -3.733,-0.613 -5.247,-1.749 L -201,-89 l -3,-2 -4.259,0.608 c -1.571,0.225 -3.066,-0.745 -3.501,-2.269 l -0.796,-2.785 c -0.284,-0.993 -0.155,-2.06 0.357,-2.956 l 2.05,-3.586 c 0.736,-1.29 1.948,-2.241 3.377,-2.648 l 3.605,-1.03 c 0.774,-0.222 1.576,-0.334 2.381,-0.334 h 4.786 1 l -8,-4 -21,-9 -13,-6 -18.123,-8.155 c -1.226,-0.552 -2.273,-1.439 -3.019,-2.558 l -1.187,-1.779 c -1.079,-1.62 -1.553,-3.569 -1.338,-5.503 l 0.347,-3.124 c 0.205,-1.845 1.134,-3.532 2.583,-4.692 l 0.087,-0.068 c 1.682,-1.347 3.868,-1.892 5.986,-1.495 L -239,-150 l 11,3 1,-2 -11,-5 c -1.883,-1.883 -2.74,-4.559 -2.302,-7.185 l 0.484,-2.907 c 0.497,-2.98 2.714,-5.382 5.646,-6.115 L -231,-171 l 9,3 h 3 l -3,-5 -0.191,-0.574 c -1.146,-3.436 -0.697,-7.204 1.222,-10.276 l 0.431,-0.69 c 0.957,-1.53 2.634,-2.46 4.439,-2.46 H -210 l 6,4 h 3 l -1,-3 -1.673,-1.673 c -1.411,-1.412 -1.846,-3.528 -1.105,-5.382 0.498,-1.245 1.47,-2.242 2.703,-2.77 l 2.67,-1.144 c 1.564,-0.671 3.299,-0.832 4.96,-0.463 l 6.445,1.432 28,13 14,6 13,11 8.173,6.539 c 1.211,0.968 2.566,1.738 4.017,2.282 l 2.343,0.879 c 2.309,0.865 4.556,1.887 6.727,3.056 l 9.74,5.244 30,13 41,15 35.008,12.898 c 1.993,0.734 3.944,1.579 5.844,2.528 l 30.905,15.453 c 1.494,0.747 2.949,1.57 4.358,2.467 l 17.679,11.251 c 1.469,0.934 3.006,1.756 4.599,2.456 l 21.178,9.318 c 0.952,0.419 1.929,0.776 2.927,1.069 l 12.367,3.638 c 1.973,0.58 3.56,2.056 4.283,3.983 1.216,3.243 1.618,6.736 1.17,10.17 l -0.273,2.09 C 107.685,-32.25 105.326,-21.977 102,-12 l -18,-7 -20,-3 -21,4 -20,5 -14,5 z" /></g><g
           transform="translate(917.6138,739.0889)"
           id="g879"><path
             id="path881"
             style="fill:#000000;fill-opacity:1;fill-rule:nonzero;stroke:none"
             d="M 0,0 -0.971,-10.556 V -19.074 -29.67 L -1,-36.042 4.234,-16.813 c 0.51,1.873 0.874,3.782 1.088,5.711 l 0.343,3.083 C 5.88,-6.082 6.836,-4.303 8.333,-3.055 10.657,-1.119 12,1.749 12,4.773 V 9 l 4,13 1,17 0.894,2.012 c 2.021,4.547 2.582,9.608 1.606,14.487 L 19,58 14,84 9,104 1.707,125.879 c -0.47,1.41 -1.093,2.764 -1.857,4.038 l -6.789,11.315 c -0.7,1.167 -1.628,2.181 -2.728,2.981 l -6.754,4.912 c -1.698,1.234 -3.651,2.07 -5.716,2.445 l -3.93,0.715 c -2.487,0.452 -4.637,2.005 -5.847,4.225 l -2.331,4.272 c -1.136,2.083 -2.948,3.716 -5.138,4.628 l -7.65,3.187 c -0.642,0.268 -1.248,0.614 -1.805,1.032 l -3.702,2.776 c -2.268,1.701 -4.937,2.788 -7.749,3.155 l -14.543,1.897 c -2.765,0.36 -5.465,1.107 -8.023,2.219 l -12.202,5.305 c -4.514,1.963 -9.531,2.456 -14.341,1.411 l -11.04,-2.4 c -3.032,-0.659 -5.981,-1.654 -8.792,-2.966 l -8.009,-3.737 c -1.837,-0.857 -3.594,-1.877 -5.25,-3.046 l -11.365,-8.023 c -2.092,-1.476 -4.026,-3.163 -5.773,-5.034 l -2.747,-2.943 c -5.684,-6.091 -9.989,-13.333 -12.624,-21.237 L -175,137 c -1.321,-3.303 -2,-6.828 -2,-10.385 v -4.231 c 0,-2.2 0.688,-4.347 1.967,-6.138 l 1.737,-2.431 c 0.85,-1.19 1.381,-2.578 1.543,-4.032 l 0.529,-4.768 c 0.148,-1.333 0.057,-2.681 -0.268,-3.981 l -1.435,-5.741 c -0.049,-0.195 -0.09,-0.392 -0.122,-0.59 l -0.757,-4.537 C -173.935,89.39 -174,88.605 -174,87.818 V 79 l -0.857,-11.141 c -0.094,-1.227 0.058,-2.46 0.447,-3.628 L -169,48 l 6,-14 2,-5 2,-9 7.021,-14.745 L -156,18 l 0.191,13.702 -1.787,24.766 -1.276,30.638 -0.343,4.532 c -0.493,6.502 2.189,12.841 7.198,17.015 L -148,112 l 7,5 18.766,4.958 17.107,2.681 23.616,1.403 L -66,126 l 8.233,-1.646 C -50.925,122.985 -46,116.978 -46,110 l 2.88,-28.598 2.397,-12.601 c 0.389,-2.042 2.445,-3.311 4.445,-2.742 l 3.533,1.005 3.809,1.093 c 1.615,0.464 3.298,-0.483 3.74,-2.104 l 1.308,-4.797 c 0.539,-1.976 -0.148,-4.084 -1.747,-5.364 l -0.392,-0.313 c -1.172,-0.938 -1.592,-2.532 -1.035,-3.925 L -26.36,49.9 c 0.202,-0.505 0.763,-0.765 1.28,-0.593 1.125,0.375 2.333,-0.281 2.631,-1.43 l 1.385,-5.33 L -13,13 -10,10 -5.553,30.937 -2,45 -0.255,48.713 2,51 5.362,52.798 10,53 12,52 13.149,50.851 15,46 16,44 V 37 31 L 14.585,23.724 13,17 11.394,10.542 10,6 6.606,3.075 3,1 Z" /></g><g
           transform="translate(935.6138,684.0889)"
           id="g883"><path
             id="path885"
             style="fill:#0073d2;fill-opacity:1;fill-rule:nonzero;stroke:none"
             d="m 0,0 -27,-15 -51,-34 -26,-18 -4,8 -33,-27 -25,-21 -5,-9 8,-18 4,-8 2,-6 2,-2 c 0,0 -2,-12 -2,-13 0,-1 3,-11 3,-11 l 8,-17 4,-16 v -33 l 7,-15 -1,-23 -7,-31 -2,-33 6,-31 5,-15 -3,-26 -2,-28 1,-30 -2,-114 -5,-36 9,-11 8,4 2,-16 32,3 15,1 h 29 l 24,2 22,6 46,28 56,40 8,124 8,2 13,-10 9,-5 18,20 16,21 v 14 l -8,10 -14,12 -3,4 5,16 -2,25 2,7 -4,8 -2,11 -2,9 4,18 -4,12 4,7 -3,12 -4,8 1,11 -1,5 -8,5 6,1 2,6 -4,4 9,7 6,11 -24,14 3,18 -5,13 -6,26 -7,11 -9,19 -29,33 -9,10 -18,7 -10,-3 -13,5 z" /></g><g
           id="g887"><g
             id="g889" /><g
             id="g901"><g
               id="g899"
               opacity="0.300003"
               clip-path="url(#clipPath893)"><g
                 id="g897"
                 transform="translate(1037.7451,594.8115)"><path
                   id="path895"
                   style="fill:#000000;fill-opacity:1;fill-rule:nonzero;stroke:none"
                   d="m 0,0 8.833,-18.647 c 0.023,-0.05 0.051,-0.099 0.081,-0.146 l 6.831,-10.735 c 0.082,-0.129 0.142,-0.27 0.176,-0.419 l 5.927,-25.683 c 0.013,-0.062 0.032,-0.122 0.054,-0.181 l 2.151,-5.59 c 1.843,-4.793 2.371,-9.994 1.526,-15.059 l -1.558,-9.349 c -0.091,-0.549 0.166,-1.099 0.649,-1.38 l 22.071,-12.875 c 0.628,-0.367 0.851,-1.166 0.502,-1.804 l -5.24,-9.609 c -0.089,-0.162 -0.209,-0.304 -0.355,-0.418 l -7.578,-5.893 c -0.637,-0.496 -0.697,-1.44 -0.125,-2.011 l 2.336,-2.337 c 0.361,-0.359 0.486,-0.891 0.325,-1.375 l -1.481,-4.444 c -0.158,-0.472 -0.563,-0.818 -1.055,-0.9 l -1.7,-0.284 c -1.221,-0.204 -1.541,-1.809 -0.491,-2.465 l 4.498,-2.811 c 0.313,-0.196 0.533,-0.513 0.605,-0.876 l 0.848,-4.24 c 0.025,-0.127 0.033,-0.257 0.022,-0.386 l -0.949,-10.425 c -0.022,-0.249 0.025,-0.499 0.137,-0.722 l 3.763,-7.527 c 0.044,-0.088 0.078,-0.18 0.101,-0.274 l 2.834,-11.334 c 0.084,-0.336 0.034,-0.692 -0.137,-0.992 l -3.434,-6.01 c -0.189,-0.332 -0.229,-0.729 -0.108,-1.091 l 3.692,-11.077 c 0.077,-0.232 0.09,-0.479 0.037,-0.717 l -3.854,-17.345 c -0.043,-0.192 -0.043,-0.391 0,-0.583 l 1.935,-8.709 1.965,-10.81 c 0.023,-0.126 0.063,-0.247 0.12,-0.362 l 3.681,-7.36 c 0.15,-0.301 0.182,-0.646 0.091,-0.97 l -1.79,-6.263 c -0.044,-0.156 -0.061,-0.317 -0.048,-0.477 l 1.96,-24.498 c 0.013,-0.172 -0.005,-0.344 -0.057,-0.508 l -4.717,-15.094 c -0.129,-0.414 -0.052,-0.863 0.207,-1.207 l 2.499,-3.332 c 0.059,-0.079 0.126,-0.151 0.2,-0.214 l 13.792,-11.823 c 0.065,-0.054 0.124,-0.115 0.175,-0.18 l 7.627,-9.533 c 0.191,-0.239 0.295,-0.535 0.295,-0.839 v -13.076 c 0,-0.294 -0.097,-0.581 -0.275,-0.814 l -15.692,-20.596 c -0.022,-0.029 -0.046,-0.057 -0.07,-0.085 l -17.247,-19.163 c -0.419,-0.466 -1.105,-0.58 -1.651,-0.276 l -7.978,4.432 c -0.058,0.033 -0.114,0.069 -0.167,0.11 l -10.918,8.398 c -0.852,0.657 -0.626,1.999 0.395,2.339 l 12.075,4.026 c 0.338,0.112 0.617,0.355 0.776,0.673 l 3.574,7.148 c 0.116,0.231 0.163,0.491 0.134,0.749 l -1.94,17.464 c -0.011,0.094 -0.031,0.187 -0.062,0.276 l -6.516,19.552 c -0.24,0.719 -1.027,1.098 -1.739,0.836 l -18.363,-6.744 c -0.086,-0.032 -0.175,-0.054 -0.265,-0.068 l -17.833,-2.675 c -0.158,-0.023 -0.318,-0.019 -0.474,0.014 l -30.863,6.478 c -0.042,0.008 -0.084,0.019 -0.125,0.033 l -23.5,7.353 c -0.182,0.057 -0.35,0.152 -0.492,0.279 l -8.333,7.407 c -0.287,0.255 -0.451,0.62 -0.451,1.004 v 3.84 c 0,0.356 0.141,0.698 0.393,0.95 l 4.214,4.213 c 0.252,0.252 0.393,0.594 0.393,0.95 v 1.825 c 0,0.393 -0.172,0.766 -0.47,1.021 l -6.433,5.514 c -0.065,0.056 -0.134,0.105 -0.208,0.147 l -6.336,3.62 c -0.35,0.2 -0.592,0.548 -0.658,0.945 l -0.861,5.166 c -0.023,0.136 -0.025,0.275 -0.005,0.411 l 0.903,6.323 c 0.044,0.304 -0.019,0.616 -0.177,0.881 l -5.643,9.404 c -0.074,0.124 -0.128,0.259 -0.16,0.399 l -1.891,8.511 c -0.04,0.183 -0.042,0.371 -0.006,0.555 l 0.755,3.772 c 0.113,0.567 0.577,0.998 1.151,1.069 l 6.618,0.828 c 0.274,0.034 0.552,-0.017 0.795,-0.146 l 16.331,-8.645 c 0.194,-0.103 0.409,-0.157 0.628,-0.157 h 0.323 c 0.743,0 1.344,0.602 1.344,1.344 v 6.439 c 0,0.144 -0.023,0.288 -0.069,0.424 l -6.863,20.586 c -0.045,0.138 -0.068,0.282 -0.068,0.425 v 14.335 c 0,0.29 0.094,0.573 0.269,0.806 l 5.568,7.425 c 0.107,0.143 0.185,0.306 0.229,0.48 l 1.813,7.254 c 0.078,0.311 0.042,0.641 -0.102,0.927 -0.393,0.787 -1.424,0.99 -2.086,0.411 l -6.012,-5.262 c -0.411,-0.358 -0.998,-0.434 -1.486,-0.19 l -4.91,2.455 c -0.186,0.093 -0.348,0.228 -0.474,0.395 l -5.787,7.717 c -0.015,0.02 -0.029,0.04 -0.043,0.061 l -1.65,2.474 c -0.21,0.315 -0.277,0.704 -0.185,1.071 l 1.761,7.043 c 0.062,0.249 0.052,0.509 -0.029,0.751 l -1.715,5.145 c -0.104,0.312 -0.09,0.651 0.04,0.954 l 2.644,6.169 c 0.101,0.236 0.132,0.496 0.09,0.75 l -0.902,5.413 c -0.022,0.132 -0.024,0.266 -0.006,0.399 l 1.943,14.578 c 0.02,0.146 0.015,0.296 -0.014,0.441 l -1.852,9.257 c -0.067,0.337 -0.003,0.685 0.178,0.975 l 4.352,6.963 c 0.229,0.368 0.268,0.824 0.103,1.224 l -6.737,16.361 -4.912,11.789 c -0.059,0.14 -0.093,0.288 -0.102,0.44 l -1.983,34.723 c -0.002,0.032 -0.005,0.064 -0.01,0.097 l -2.955,22.655 c -0.025,0.195 -0.007,0.394 0.052,0.582 l 5.237,16.458 c 1.101,3.459 2.972,6.624 5.472,9.256 l 14.873,15.655 c 0.212,0.224 0.494,0.367 0.8,0.407 l 22.288,2.907 c 0.158,0.021 0.319,0.013 0.475,-0.023 l 14.114,-3.257 c 7.667,-1.769 14.832,-5.258 20.953,-10.202 L -0.37,0.47 C -0.213,0.343 -0.086,0.183 0,0" /></g></g></g></g><g
           id="g903"><g
             id="g905" /><g
             id="g917"><g
               id="g915"
               opacity="0.399994"
               clip-path="url(#clipPath909)"><g
                 id="g913"
                 transform="translate(1081.6143,316.0889)"><path
                   id="path911"
                   style="fill:#000000;fill-opacity:1;fill-rule:nonzero;stroke:none"
                   d="M 0,0 V 0 C -9.438,-6.292 -21.296,-7.752 -31.978,-3.937 L -57,5 -92,26 -110,40 -83,25 -53.39,8.297 C -47.165,4.785 -40.449,2.229 -33.467,0.71 L -21,-2 Z" /></g></g></g></g><g
           id="g919"><g
             id="g921" /><g
             id="g933"><g
               id="g931"
               opacity="0.399994"
               clip-path="url(#clipPath925)"><g
                 id="g929"
                 transform="translate(965.6143,420.0889)"><path
                   id="path927"
                   style="fill:#000000;fill-opacity:1;fill-rule:nonzero;stroke:none"
                   d="m 0,0 15,11 28,8 25,4 -34,-9 z" /></g></g></g></g><g
           id="g935"><g
             id="g937" /><g
             id="g949"><g
               id="g947"
               opacity="0.399994"
               clip-path="url(#clipPath941)"><g
                 id="g945"
                 transform="translate(1042.6143,430.0889)"><path
                   id="path943"
                   style="fill:#000000;fill-opacity:1;fill-rule:nonzero;stroke:none"
                   d="M 0,0 26,-4 37,-19 35,-31 24,-14 Z" /></g></g></g></g><g
           id="g951"><g
             id="g953" /><g
             id="g965"><g
               id="g963"
               opacity="0.399994"
               clip-path="url(#clipPath957)"><g
                 id="g961"
                 transform="translate(953.6138,452.0889)"><path
                   id="path959"
                   style="fill:#000000;fill-opacity:1;fill-rule:nonzero;stroke:none"
                   d="m 0,0 -7,-8 5,-8 20,4 29,12 z" /></g></g></g></g><g
           id="g967"><g
             id="g969" /><g
             id="g981"><g
               id="g979"
               opacity="0.399994"
               clip-path="url(#clipPath973)"><g
                 id="g977"
                 transform="translate(1067.6143,462.0889)"><path
                   id="path975"
                   style="fill:#000000;fill-opacity:1;fill-rule:nonzero;stroke:none"
                   d="m 0,0 -45,-12 23,-2 H 2 l 4,8 z" /></g></g></g></g><g
           id="g983"><g
             id="g985" /><g
             id="g997"><g
               id="g995"
               opacity="0.399994"
               clip-path="url(#clipPath989)"><g
                 id="g993"
                 transform="translate(952.6138,475.0889)"><path
                   id="path991"
                   style="fill:#000000;fill-opacity:1;fill-rule:nonzero;stroke:none"
                   d="m 0,0 25,-2 16,-8 26,1 34,1 -28,-5 -44,-2 -21,2 z" /></g></g></g></g><g
           id="g999"><g
             id="g1001" /><g
             id="g1013"><g
               id="g1011"
               opacity="0.399994"
               clip-path="url(#clipPath1005)"><g
                 id="g1009"
                 transform="translate(1006.6143,478.0889)"><path
                   id="path1007"
                   style="fill:#000000;fill-opacity:1;fill-rule:nonzero;stroke:none"
                   d="m 0,0 7,-6 44,1 z" /></g></g></g></g><g
           id="g1015"><g
             id="g1017" /><g
             id="g1029"><g
               id="g1027"
               opacity="0.399994"
               clip-path="url(#clipPath1021)"><g
                 id="g1025"
                 transform="translate(1081.6143,491.0889)"><path
                   id="path1023"
                   style="fill:#000000;fill-opacity:1;fill-rule:nonzero;stroke:none"
                   d="m 0,0 -20,-5 -10,-6 h 15 l 11,4 z" /></g></g></g></g><g
           id="g1031"><g
             id="g1033" /><g
             id="g1045"><g
               id="g1043"
               opacity="0.399994"
               clip-path="url(#clipPath1037)"><g
                 id="g1041"
                 transform="translate(1066.6143,503.0889)"><path
                   id="path1039"
                   style="fill:#000000;fill-opacity:1;fill-rule:nonzero;stroke:none"
                   d="m 0,0 7,-6 -20,-3 -38,6 z" /></g></g></g></g><g
           id="g1047"><g
             id="g1049" /><g
             id="g1061"><g
               id="g1059"
               opacity="0.399994"
               clip-path="url(#clipPath1053)"><g
                 id="g1057"
                 transform="translate(970.6143,536.0889)"><path
                   id="path1055"
                   style="fill:#000000;fill-opacity:1;fill-rule:nonzero;stroke:none"
                   d="m 0,0 -15,-14 -6,-19 9,18 z" /></g></g></g></g><g
           id="g1063"><g
             id="g1065" /><g
             id="g1077"><g
               id="g1075"
               opacity="0.399994"
               clip-path="url(#clipPath1069)"><g
                 id="g1073"
                 transform="translate(946.6138,544.0889)"><path
                   id="path1071"
                   style="fill:#000000;fill-opacity:1;fill-rule:nonzero;stroke:none"
                   d="m 0,0 -3,-20 5,-17 -3,16 z" /></g></g></g></g><g
           id="g1079"><g
             id="g1081" /><g
             id="g1093"><g
               id="g1091"
               opacity="0.399994"
               clip-path="url(#clipPath1085)"><g
                 id="g1089"
                 transform="translate(941.6138,548.0889)"><path
                   id="path1087"
                   style="fill:#000000;fill-opacity:1;fill-rule:nonzero;stroke:none"
                   d="M 0,0 -2,-20 6,-43 0,-20 Z" /></g></g></g></g><g
           transform="translate(1083.6143,303.0889)"
           id="g1095"><path
             id="path1097"
             style="fill:#1b1464;fill-opacity:1;fill-rule:nonzero;stroke:none"
             d="m 0,0 -4,-31 -11,-34 29,33 z" /></g><g
           id="g1099"><g
             id="g1101" /><g
             id="g1113"><g
               id="g1111"
               opacity="0.399994"
               clip-path="url(#clipPath1105)"><g
                 id="g1109"
                 transform="translate(855.6138,631.0889)"><path
                   id="path1107"
                   style="fill:#000000;fill-opacity:1;fill-rule:nonzero;stroke:none"
                   d="m 0,0 11,-35 c 0,0 12,-28 13,-28 1,0 -21,12 -21,12 l -11,28 z" /></g></g></g></g><g
           id="g1115"><g
             id="g1117" /><g
             id="g1129"><g
               id="g1127"
               opacity="0.399994"
               clip-path="url(#clipPath1121)"><g
                 id="g1125"
                 transform="translate(792.6138,596.0889)"><path
                   id="path1123"
                   style="fill:#000000;fill-opacity:1;fill-rule:nonzero;stroke:none"
                   d="m 0,0 -13,-40 3,-20 28,-9 -8,17 z" /></g></g></g></g><g
           id="g1131"><g
             id="g1133" /><g
             id="g1145"><g
               id="g1143"
               opacity="0.399994"
               clip-path="url(#clipPath1137)"><g
                 id="g1141"
                 transform="translate(802.6138,418.0889)"><path
                   id="path1139"
                   style="fill:#000000;fill-opacity:1;fill-rule:nonzero;stroke:none"
                   d="M 0,0 -11,-66 V -76 L 0,-53 13,-11 4,12 Z" /></g></g></g></g><g
           id="g1147"><g
             id="g1149" /><g
             id="g1161"><g
               id="g1159"
               opacity="0.399994"
               clip-path="url(#clipPath1153)"><g
                 id="g1157"
                 transform="translate(806.6138,342.0889)"><path
                   id="path1155"
                   style="fill:#000000;fill-opacity:1;fill-rule:nonzero;stroke:none"
                   d="m 0,0 -8,-28 5,-19 6,27 z" /></g></g></g></g><g
           id="g1163"><g
             id="g1165" /><g
             id="g1177"><g
               id="g1175"
               opacity="0.399994"
               clip-path="url(#clipPath1169)"><g
                 id="g1173"
                 transform="translate(912.6138,578.0889)"><path
                   id="path1171"
                   style="fill:#000000;fill-opacity:1;fill-rule:nonzero;stroke:none"
                   d="m 0,0 -32,-25 -31,-38 v 4.729 c 0,10.186 5.015,19.719 13.408,25.489 L -47,-31 l 20,17 z" /></g></g></g></g><g
           transform="translate(968.6143,210.0889)"
           id="g1179"><path
             id="path1181"
             style="fill:#1b1464;fill-opacity:1;fill-rule:nonzero;stroke:none"
             d="m 0,0 -31,-45 17,-43 28,-63 7,-14 59,-43 90,36 19,6 c 0,0 24,19 24,20 0,1 40,61 40,61 l 35,65 4,20 8,11 -4,6 17,27 v 25 l 3,7 -7,16 -20,6 -21,64 -21,27 v 3 l -17,18 -47,50 -14,-6 -9,-7 -11,3 -14,-23 -5,-31 8,-45 5,-31 L 124,90 133,71 129,60 111,39 99,24 96,23 85,30 60,22 34,8 15,-1 Z" /></g><g
           transform="translate(1071.6143,57.0889)"
           id="g1183"><path
             id="path1185"
             style="fill:#000000;fill-opacity:1;fill-rule:nonzero;stroke:none"
             d="m 0,0 33,36 29,37 28,34 24,44 10,27 9,27 13,22 32,17 20,2 9.273,-1.882 L 213,240 217.233,228.751 216,220 h -1 l -1,13 -8,2 -14,-3 -11,-5 -13,-16 -11,-17 -6,-13 -13,-21 16,3 15,3 16,1 12,-1 2.538,-0.308 L 202,162 l -6,-10 -6,3 -20,-1 -11,-3 -21,-9 -12,-4 L 109,107 89,71 V 67 L 66,47 45,25 23,9 7,0 Z" /></g><g
           transform="translate(1022.6143,57.0889)"
           id="g1187"><path
             id="path1189"
             style="fill:#000000;fill-opacity:1;fill-rule:nonzero;stroke:none"
             d="m 0,0 5,-6 h 11 l 19,30 16,36 7,24 5,26 12,34 7,25 -4,27 -3,8 -6,-3 2,-6 L 65,166 58,134 44,88 28,42 13,12 6,3 Z" /></g><g
           id="g1191"><g
             id="g1193" /><g
             id="g1205"><g
               id="g1203"
               opacity="0.199997"
               clip-path="url(#clipPath1197)"><g
                 id="g1201"
                 transform="translate(1145.6143,356.0889)"><path
                   id="path1199"
                   style="fill:#000000;fill-opacity:1;fill-rule:nonzero;stroke:none"
                   d="m 0,0 35,43 -14,-77 -11,-39 25,42 -17,-49 19,-5 15,-29 -20,-4 -6,25 -16,11 16,-26 5,-29 -21,-32 -13,29 13,31 -6,33 z" /></g></g></g></g><g
           id="g1207"><g
             id="g1209" /><g
             id="g1221"><g
               id="g1219"
               opacity="0.399994"
               clip-path="url(#clipPath1213)"><g
                 id="g1217"
                 transform="translate(1104.6143,410.0889)"><path
                   id="path1215"
                   style="fill:#000000;fill-opacity:1;fill-rule:nonzero;stroke:none"
                   d="M 0,0 19,-20 17,-58 12,-72 Z" /></g></g></g></g><g
           id="g1223"><g
             id="g1225" /><g
             id="g1237"><g
               id="g1235"
               opacity="0.199997"
               clip-path="url(#clipPath1229)"><g
                 id="g1233"
                 transform="translate(1104.6143,238.0889)"><path
                   id="path1231"
                   style="fill:#000000;fill-opacity:1;fill-rule:nonzero;stroke:none"
                   d="m 0,0 1,-22 18,18 v -18 l -4,-10 10,-19 v 20 c 0,2 8,12 8,12 V 40 L 24,15 Z" /></g></g></g></g><g
           id="g1239"><g
             id="g1241" /><g
             id="g1253"><g
               id="g1251"
               opacity="0.399994"
               clip-path="url(#clipPath1245)"><g
                 id="g1249"
                 transform="translate(1210.6143,367.0889)"><path
                   id="path1247"
                   style="fill:#000000;fill-opacity:1;fill-rule:nonzero;stroke:none"
                   d="M 0,0 C 0,0 12,-5 12,-3 12,-1 26,7 26,7 L 37,-29 51,-64 20,-74 9,-81 13,-47 5,-11 Z" /></g></g></g></g><g
           transform="translate(1020.916,607.5757)"
           id="g1255"><path
             id="path1257"
             style="fill:#000000;fill-opacity:1;fill-rule:nonzero;stroke:none"
             d="m 0,0 16.364,-13.218 c 0.22,-0.177 0.397,-0.401 0.517,-0.656 l 8.766,-18.507 c 0.034,-0.071 0.072,-0.139 0.114,-0.204 l 6.764,-10.63 c 0.115,-0.18 0.198,-0.378 0.246,-0.585 l 5.897,-25.558 c 0.02,-0.086 0.046,-0.17 0.077,-0.252 l 2.085,-5.42 c 1.878,-4.882 2.414,-10.178 1.555,-15.337 L 40.91,-99.21 c -0.128,-0.769 0.233,-1.537 0.905,-1.928 l 21.309,-12.431 c 0.876,-0.511 1.188,-1.627 0.701,-2.517 l -4.94,-9.058 c -0.123,-0.226 -0.292,-0.424 -0.495,-0.582 l -7.015,-5.456 c -0.891,-0.693 -0.973,-2.009 -0.175,-2.807 l 1.678,-1.678 c 0.503,-0.502 0.678,-1.246 0.453,-1.919 l -1.276,-3.83 c -0.22,-0.659 -0.785,-1.142 -1.471,-1.256 -1.703,-0.285 -2.149,-2.525 -0.686,-3.44 l 3.114,-1.946 c 0.437,-0.274 0.743,-0.716 0.844,-1.222 l 0.789,-3.94 c 0.035,-0.177 0.044,-0.358 0.028,-0.537 l -0.927,-10.199 c -0.031,-0.346 0.034,-0.696 0.191,-1.007 l 3.668,-7.339 c 0.062,-0.123 0.11,-0.251 0.143,-0.384 l 2.767,-11.069 c 0.118,-0.47 0.048,-0.966 -0.191,-1.386 l -3.21,-5.617 c -0.264,-0.464 -0.32,-1.018 -0.151,-1.524 l 3.57,-10.712 c 0.108,-0.322 0.126,-0.668 0.052,-1 l -3.797,-17.086 c -0.059,-0.268 -0.059,-0.545 0,-0.813 l 1.91,-8.594 1.952,-10.736 c 0.032,-0.175 0.088,-0.344 0.167,-0.503 l 3.555,-7.108 c 0.209,-0.419 0.254,-0.903 0.125,-1.354 l -1.706,-5.973 c -0.062,-0.215 -0.084,-0.44 -0.066,-0.664 l 1.944,-24.3 c 0.019,-0.239 -0.008,-0.479 -0.079,-0.708 l -4.606,-14.737 c -0.179,-0.576 -0.072,-1.202 0.289,-1.684 l 2.301,-3.068 c 0.082,-0.109 0.176,-0.21 0.28,-0.299 l 13.71,-11.751 c 0.089,-0.077 0.17,-0.161 0.244,-0.253 l 6.109,-7.635 c 0.354,-0.444 1.064,-0.096 0.932,0.456 l -4.106,17.129 c -0.029,0.122 -0.014,0.25 0.041,0.362 l 6.893,13.784 c 0.013,0.029 0.025,0.058 0.034,0.088 l 4.959,16.859 c 0.018,0.063 0.025,0.129 0.019,0.194 l -0.988,11.858 c -0.002,0.029 -0.007,0.057 -0.013,0.085 l -3.982,15.924 c -0.005,0.022 -0.01,0.046 -0.012,0.07 l -2.995,26.95 c -0.001,0.009 -0.002,0.019 -0.004,0.029 l -3.981,23.887 c -0.011,0.065 -0.009,0.131 0.005,0.197 l 3.964,18.827 c 0.009,0.05 0.027,0.097 0.05,0.141 l 7.95,14.905 c 0.009,0.018 0.021,0.037 0.033,0.055 l 6.755,9.648 c 0.134,0.193 0.38,0.274 0.603,0.2 l 8.386,-2.796 c 0.15,-0.05 0.315,-0.03 0.45,0.054 l 7.747,4.842 c 0.028,0.017 0.056,0.031 0.085,0.043 l 9.942,3.976 c 0.009,0.004 0.019,0.008 0.029,0.011 l 7.116,2.372 c 0.515,0.172 0.472,0.914 -0.059,1.026 l -22.072,4.597 -19.784,4.946 c -0.139,0.035 -0.257,0.124 -0.329,0.247 l -9.868,16.776 c -0.013,0.02 -0.024,0.043 -0.033,0.065 l -4.924,11.817 c -0.04,0.097 -0.051,0.205 -0.031,0.308 l 1.917,9.584 c 0.033,0.162 -0.012,0.33 -0.121,0.454 l -13.679,15.634 c -0.095,0.109 -0.229,0.174 -0.372,0.181 l -18.421,0.97 c -0.215,0.011 -0.402,0.151 -0.474,0.353 l -5.881,16.665 -4.981,15.94 c -0.013,0.04 -0.03,0.079 -0.052,0.115 l -5.954,9.923 c -0.009,0.015 -0.017,0.03 -0.024,0.046 l -8.958,18.909 c -0.021,0.045 -0.047,0.086 -0.08,0.123 L 4.738,3.468 C 4.711,3.498 4.682,3.525 4.648,3.549 l -24.916,17.939 c -0.023,0.017 -0.046,0.032 -0.073,0.044 l -11.848,5.925 c -0.075,0.037 -0.156,0.056 -0.239,0.056 h -19.749 c -0.082,0 -0.164,-0.019 -0.237,-0.056 l -7.884,-3.941 C -65.575,20.877 -70.24,17.16 -73.991,12.605 L -82.279,2.541 c -0.015,-0.019 -0.03,-0.038 -0.042,-0.058 l -12.96,-20.935 c -0.014,-0.023 -0.027,-0.048 -0.037,-0.072 l -10.972,-25.933 c -0.008,-0.02 -0.015,-0.04 -0.021,-0.061 l -3.975,-13.912 c -0.011,-0.038 -0.017,-0.076 -0.02,-0.115 l -0.995,-16.926 c -0.001,-0.011 -0.001,-0.021 -0.001,-0.031 v -12.919 c 0,-0.043 0.005,-0.087 0.016,-0.129 l 3.984,-15.937 5,-18 4.984,-19.936 c 0.01,-0.042 0.016,-0.085 0.016,-0.129 v -7.65 c 0,-0.178 0.089,-0.343 0.237,-0.442 l 5.509,-3.674 c 0.157,-0.104 0.247,-0.284 0.236,-0.474 l -0.979,-16.648 c -0.002,-0.031 -10e-4,-0.062 0.002,-0.094 l 1.977,-16.799 c 0.011,-0.1 0.052,-0.196 0.116,-0.274 l 8.805,-10.761 c 0.063,-0.078 0.104,-0.172 0.116,-0.271 l 2.974,-23.796 c 0.005,-0.034 0.006,-0.069 0.003,-0.104 l -0.956,-13.378 c -0.022,-0.308 0.222,-0.57 0.531,-0.57 h 9.268 c 0.105,0 0.208,-0.031 0.295,-0.089 l 11.731,-7.821 c 0.088,-0.059 0.191,-0.09 0.295,-0.09 h 2.308 c 0.294,0 0.532,0.238 0.532,0.532 v 5.376 c 0,0.061 -0.011,0.121 -0.031,0.179 l -4.948,13.854 c -0.014,0.04 -0.024,0.081 -0.028,0.123 l -1.993,18.936 -1.974,12.828 c -0.017,0.112 -0.069,0.215 -0.149,0.295 l -12.707,12.707 c -0.108,0.109 -0.165,0.257 -0.155,0.409 l 0.985,15.761 0.996,12.946 c 0.002,0.037 0.009,0.072 0.018,0.106 l 1.944,6.801 c 0.027,0.096 0.027,0.198 -0.001,0.295 l -6.948,23.822 c -0.006,0.02 -0.011,0.041 -0.014,0.061 l -2.995,17.969 -3.997,22.983 c -0.002,0.011 -0.004,0.023 -0.005,0.036 l -2.995,28.954 c -0.002,0.018 -0.003,0.036 -0.003,0.055 v 15.939 c 0,0.022 0.001,0.044 0.004,0.066 l 1.983,15.862 c 0.008,0.07 0.031,0.137 0.065,0.197 l 7.92,13.86 c 0.018,0.032 0.04,0.062 0.064,0.09 l 7.953,8.946 c 0.007,0.008 0.015,0.016 0.022,0.023 l 8.952,8.952 c 0.025,0.025 0.051,0.047 0.081,0.066 l 8.821,5.882 c 0.088,0.058 0.191,0.089 0.295,0.089 h 15.793 c 0.032,0 0.062,-0.002 0.093,-0.008 l 16.818,-2.968 c 0.089,-0.016 0.172,-0.054 0.243,-0.111 z" /></g><g
           transform="translate(696.6138,183.0889)"
           id="g1259"><path
             id="path1261"
             style="fill:#ffffff;fill-opacity:1;fill-rule:nonzero;stroke:none"
             d="m 0,0 42,215 5,6 12,-6 L 50,145 27,40 21,-9 Z" /></g><g
           transform="translate(794.6138,390.0889)"
           id="g1263"><path
             id="path1265"
             style="fill:#000000;fill-opacity:1;fill-rule:nonzero;stroke:none"
             d="m 0,0 -53,19 -7,-3 -13,-80 -13,-79 -15,-69 6,-2 -3,7 15,64 13,78 13,75 5,5 13,-7 -4,-31 -12,-64 -21,-96 -4,-26 83,33 -2,40 5,37 3,4 -14,43 2,35 z" /></g><g
           transform="translate(955.3208,309.0889)"
           id="g1267"><path
             id="path1269"
             style="fill:#eab5a8;fill-opacity:1;fill-rule:nonzero;stroke:none"
             d="m 0,0 -61.101,-52.231 c -0.598,-0.512 -1.235,-0.977 -1.905,-1.39 l -66.199,-40.888 c -0.529,-0.327 -1.084,-0.61 -1.659,-0.846 l -13.223,-5.446 c -1.868,-0.768 -3.962,-0.779 -5.838,-0.029 l -6.494,2.598 c -0.384,0.154 -0.741,0.371 -1.054,0.642 l -14.081,12.204 c -0.297,0.257 -0.615,0.488 -0.951,0.69 L -177,-82 h -5.364 c -1.072,0 -2.125,-0.279 -3.056,-0.812 L -191,-86 h -3.085 c -1.892,0 -3.733,-0.613 -5.247,-1.749 L -201,-89 l -3,-2 -4.259,0.608 c -1.571,0.225 -3.066,-0.745 -3.501,-2.269 l -0.796,-2.785 c -0.284,-0.993 -0.155,-2.06 0.358,-2.956 l 2.049,-3.586 c 0.737,-1.29 1.949,-2.241 3.377,-2.648 l 3.605,-1.03 c 0.774,-0.222 1.576,-0.334 2.381,-0.334 h 4.786 1 l -8,-4 -21,-9 -13,-6 -18.123,-8.155 c -1.226,-0.552 -2.273,-1.439 -3.019,-2.558 l -1.186,-1.779 c -1.08,-1.62 -1.554,-3.569 -1.339,-5.503 l 0.347,-3.124 c 0.205,-1.845 1.134,-3.532 2.583,-4.692 l 0.087,-0.068 c 1.682,-1.347 3.868,-1.892 5.986,-1.495 L -239,-150 l 11,3 1,-2 -11,-5 c -1.882,-1.883 -2.74,-4.559 -2.302,-7.185 l 0.484,-2.907 c 0.497,-2.98 2.714,-5.382 5.646,-6.115 L -231,-171 l 9,3 h 3 l -3,-5 -0.191,-0.574 c -1.145,-3.436 -0.697,-7.204 1.222,-10.276 l 0.432,-0.69 c 0.956,-1.53 2.634,-2.46 4.438,-2.46 H -210 l 6,4 h 3 l -1,-3 -1.673,-1.673 c -1.411,-1.412 -1.846,-3.528 -1.105,-5.382 0.498,-1.245 1.471,-2.242 2.703,-2.77 l 2.67,-1.144 c 1.564,-0.671 3.299,-0.832 4.96,-0.463 l 6.445,1.432 28,13 14,6 13,11 8.174,6.539 c 1.21,0.968 2.565,1.738 4.016,2.282 l 2.344,0.879 c 2.308,0.865 4.555,1.887 6.726,3.056 l 9.74,5.244 30,13 41,15 35.009,12.898 c 1.992,0.734 3.944,1.579 5.843,2.528 l 30.906,15.453 c 1.493,0.747 2.949,1.57 4.358,2.467 l 17.678,11.251 c 1.469,0.934 3.006,1.756 4.599,2.456 l 21.179,9.318 c 0.951,0.419 1.928,0.776 2.926,1.069 l 12.367,3.638 c 1.974,0.58 3.56,2.056 4.283,3.983 1.216,3.243 1.618,6.736 1.17,10.17 l -0.273,2.09 C 107.685,-32.25 105.326,-21.977 102,-12 l -18,-7 -20,-3 -21,4 -20,5 -14,5 z" /></g></g></g></g></svg>
